<?xml version="1.0" standalone="no"?>
<!DOCTYPE svg PUBLIC "-//W3C//DTD SVG 20010904//EN"
 "http://www.w3.org/TR/2001/REC-SVG-20010904/DTD/svg10.dtd">
<svg version="1.0" xmlns="http://www.w3.org/2000/svg"
 width="290.000000pt" height="268.000000pt" viewBox="0 0 290.000000 268.000000"
 preserveAspectRatio="xMidYMid meet">

<g transform="translate(0.000000,268.000000) scale(0.100000,-0.100000)"
fill="#000000" stroke="none">
<path d="M1381 2531 c-24 -24 -25 -30 -12 -64 11 -28 39 -41 65 -31 26 10 18
19 -16 19 -31 0 -33 2 -33 35 0 33 2 35 33 35 35 0 39 18 4 23 -11 2 -30 -6
-41 -17z"/>
<path d="M1520 2494 c-11 -26 -20 -47 -20 -49 0 -1 14 0 30 3 17 2 38 -2 47
-9 15 -12 16 -12 10 3 -3 9 -11 35 -17 57 -6 23 -15 41 -20 41 -5 0 -18 -21
-30 -46z m40 -9 c0 -25 -14 -34 -24 -16 -8 12 3 41 15 41 5 0 9 -11 9 -25z"/>
<path d="M1645 2530 c-2 -3 -6 -28 -8 -56 -3 -27 -3 -41 0 -31 3 10 14 17 31
18 27 0 27 0 4 11 -35 17 -24 44 17 40 18 -1 30 2 27 7 -7 11 -65 20 -71 11z"/>
<path d="M1795 2530 c-3 -5 -2 -10 4 -10 5 0 13 5 16 10 3 6 2 10 -4 10 -5 0
-13 -4 -16 -10z"/>
<path d="M1207 2520 c-3 -8 -9 -28 -14 -44 l-9 -29 -23 31 c-30 42 -41 40 -34
-5 9 -55 25 -89 19 -39 l-5 39 23 -22 c28 -26 36 -27 36 -2 0 33 20 34 26 2 4
-17 11 -31 16 -31 9 0 6 13 -17 80 -9 23 -15 30 -18 20z"/>
<path d="M1751 2473 c-16 -57 -14 -70 15 -77 15 -4 29 -5 31 -2 3 3 -7 8 -21
12 -35 9 -31 40 4 37 l25 -3 -22 12 c-25 12 -27 17 -15 36 7 9 15 10 35 3 15
-6 27 -7 27 -2 0 8 -33 21 -57 21 -7 0 -17 -17 -22 -37z"/>
<path d="M988 2454 c-19 -40 7 -79 52 -79 28 0 36 5 44 27 22 63 -69 112 -96
52z m70 4 c20 -20 15 -66 -8 -73 -28 -9 -50 11 -50 45 0 37 33 53 58 28z"/>
<path d="M1940 2410 c-11 -21 -20 -43 -20 -48 0 -4 19 -6 43 -3 38 5 42 9 45
36 3 19 -2 33 -14 42 -26 19 -32 17 -54 -27z m44 14 c9 -3 16 -15 16 -25 0
-22 -22 -34 -45 -25 -12 4 -13 10 -3 31 13 28 11 27 32 19z"/>
<path d="M871 2421 c-11 -7 -11 -16 4 -55 21 -55 23 -56 53 -45 34 13 36 35 7
74 -28 36 -40 41 -64 26z m43 -32 c-8 -14 -31 -11 -37 5 -3 8 -1 17 6 19 15 6
39 -12 31 -24z m31 -28 c3 -6 -4 -15 -16 -22 -17 -9 -23 -8 -30 2 -5 8 -3 17
4 21 17 11 35 10 42 -1z"/>
<path d="M2053 2354 c-46 -38 -55 -55 -24 -47 11 3 28 -4 40 -16 l21 -21 6 24
c3 12 4 39 2 59 l-3 36 -42 -35z m37 -6 c0 -7 -5 -20 -10 -28 -8 -12 -11 -13
-22 -2 -11 11 -9 16 6 28 24 17 26 17 26 2z"/>
<path d="M726 2298 l7 -42 -38 22 c-20 13 -39 21 -41 19 -2 -2 9 -28 26 -58
16 -30 30 -48 30 -41 0 7 -5 22 -11 34 -13 23 -4 37 13 20 22 -22 35 -13 31
21 l-4 32 23 -27 c38 -44 42 -32 7 17 -18 25 -36 45 -41 45 -4 0 -5 -19 -2
-42z"/>
<path d="M2150 2285 l-31 -46 25 7 c22 5 26 3 26 -14 0 -19 2 -18 30 6 31 28
38 60 18 80 -21 21 -36 13 -68 -33z m66 10 c4 -8 1 -22 -6 -30 -14 -17 -20
-18 -38 -6 -12 7 -12 12 -1 30 16 25 37 27 45 6z"/>
<path d="M614 2219 c29 -34 34 -64 11 -73 -21 -8 -41 2 -60 30 -8 13 -20 24
-26 24 -5 0 2 -16 17 -35 19 -26 34 -35 55 -35 51 0 59 49 16 98 -31 34 -42
26 -13 -9z"/>
<path d="M2263 2207 c-39 -19 -62 -46 -29 -34 15 6 40 -17 48 -43 3 -10 10 -3
20 21 38 88 34 93 -39 56z m47 -3 c0 -3 -5 -14 -11 -25 -9 -17 -13 -18 -26 -8
-13 12 -13 14 3 26 19 14 34 17 34 7z"/>
<path d="M1385 2189 c5 -13 11 -96 14 -184 9 -241 23 -257 270 -302 42 -8 45
-11 62 -58 9 -27 31 -87 48 -133 l31 -83 -34 7 c-71 13 -166 -42 -166 -97 0
-41 9 -58 41 -74 39 -21 98 -19 144 5 40 21 41 20 65 -22 19 -32 30 -201 20
-291 -10 -82 -48 -224 -70 -257 -15 -23 -13 1 9 88 26 101 43 227 39 277 -3
37 -7 42 -53 67 -144 78 -529 125 -801 99 -219 -21 -432 -75 -481 -120 -23
-22 -23 -39 4 -221 54 -368 229 -585 515 -636 162 -30 334 -6 463 65 28 15 69
33 92 39 23 7 55 23 71 37 l28 24 27 -34 c73 -92 231 -101 267 -15 15 35 1 98
-25 120 -27 23 -16 30 45 30 72 0 123 19 168 63 45 43 72 99 116 237 32 103
46 134 88 192 18 25 6 30 -75 36 -90 5 -168 -10 -247 -49 -89 -45 -124 -93
-185 -256 -15 -40 -36 -83 -46 -95 -20 -23 -20 -23 -1 17 64 132 99 330 83
470 -5 44 -8 81 -6 83 2 2 12 -1 23 -7 34 -18 79 -13 109 13 37 32 37 89 -2
147 -27 41 -27 41 -7 63 58 63 67 132 23 177 -54 54 -159 25 -211 -58 l-28
-44 -30 78 c-43 116 -55 176 -50 259 8 125 76 196 187 198 134 2 215 -129 150
-244 -44 -79 -147 -82 -217 -7 -44 47 -9 124 38 82 24 -22 37 -13 42 30 2 24
8 30 28 30 37 0 58 -43 44 -92 -6 -21 -13 -45 -15 -53 -2 -8 3 -15 11 -15 9 0
21 17 29 43 34 109 -45 197 -115 127 -14 -14 -36 -25 -49 -25 -63 0 -88 -80
-44 -142 45 -62 163 -87 227 -48 77 47 96 192 36 267 -78 96 -218 105 -312 19
-40 -36 -65 -96 -70 -171 -7 -95 -20 -57 -22 60 -1 109 -18 152 -84 213 -53
49 -111 78 -175 88 -43 7 -44 7 -36 -17z m65 -44 c10 -12 10 -15 -4 -15 -9 0
-16 7 -16 15 0 8 2 15 4 15 2 0 9 -7 16 -15z m105 -35 c-9 -15 -18 -11 -39 16
l-18 26 31 -17 c18 -9 29 -20 26 -25z m-49 -44 c30 -30 48 -74 26 -64 -4 2
-28 11 -55 22 -41 16 -47 23 -47 47 0 41 33 38 76 -5z m99 4 c20 -22 20 -22
-11 -38 -25 -13 -34 -7 -34 23 0 39 18 45 45 15z m39 -66 c12 -31 5 -49 -29
-71 -28 -18 -34 -19 -39 -6 -9 24 -7 30 20 62 29 35 39 38 48 15z m-147 -19
c26 -16 45 -35 49 -51 8 -32 3 -36 -32 -25 -16 5 -41 12 -56 15 -25 6 -28 11
-28 46 0 47 8 49 67 15z m161 -101 c-2 -25 -10 -42 -25 -51 -21 -14 -23 -13
-34 11 -11 23 -9 29 11 51 35 37 52 33 48 -11z m-129 -12 c19 -9 38 -27 42
-40 8 -21 7 -22 -52 -21 -55 2 -61 4 -74 30 -25 46 -20 60 18 54 17 -3 47 -14
66 -23z m131 -84 c0 -16 -3 -19 -11 -11 -6 6 -8 16 -5 22 11 17 16 13 16 -11z
m-79 -8 c20 -6 43 -18 50 -27 13 -15 10 -15 -35 -9 -54 8 -96 25 -96 38 0 11
37 10 81 -2z m432 -172 c16 -12 16 -15 -2 -45 -15 -24 -33 -35 -75 -47 -34
-10 -62 -26 -75 -43 -29 -36 -37 -22 -17 30 20 53 51 84 103 102 48 18 46 17
66 3z m37 -88 c-14 -50 -57 -94 -84 -85 -11 4 -36 9 -53 12 -18 3 -33 8 -33
12 0 11 34 28 70 36 45 10 78 32 86 57 11 35 24 5 14 -32z m-72 -127 c39 -29
64 -75 60 -111 -2 -21 -8 -26 -23 -24 -32 6 -55 33 -67 79 -6 24 -21 52 -34
62 -13 10 -24 22 -24 25 0 13 56 -7 88 -31z m-178 7 c12 -8 11 -10 -7 -10 -12
0 -34 -11 -50 -24 -42 -35 -67 -46 -91 -39 -25 6 -26 11 -8 35 31 41 119 62
156 38z m92 -20 c15 -11 30 -38 37 -64 7 -30 21 -53 43 -70 38 -29 20 -36 -35
-12 -52 21 -97 80 -97 126 0 46 13 51 52 20z m-77 -42 c14 -43 -80 -81 -140
-57 l-30 12 32 7 c17 4 46 19 63 34 38 32 66 33 75 4z m-295 -157 c118 -20
234 -52 283 -77 23 -12 27 -21 27 -57 0 -49 -28 -220 -41 -255 -9 -23 -10 -22
-42 24 -17 27 -50 59 -72 71 -47 27 -115 30 -150 7 -25 -16 -55 -80 -55 -117
1 -19 23 -91 44 -138 5 -11 -4 -23 -32 -42 -77 -54 -108 -163 -59 -210 13 -12
32 -27 43 -33 17 -11 14 -14 -31 -34 -162 -71 -399 -61 -560 23 -126 66 -233
210 -284 382 -26 89 -51 243 -51 316 0 55 1 56 38 73 74 33 261 70 447 90 95
10 384 -3 495 -23z m750 -161 c0 -5 -6 -10 -14 -10 -7 0 -34 -11 -59 -24 -45
-25 -46 -25 -52 -5 -4 11 -5 22 -3 25 3 3 51 12 121 23 4 0 7 -3 7 -9z m60
-28 c0 -18 -27 -32 -63 -32 -44 0 -41 15 6 29 42 12 57 13 57 3z m-211 -33 c1
-13 -5 -38 -15 -56 -18 -34 -34 -43 -34 -20 0 8 -11 24 -25 37 l-26 24 38 23
c44 27 57 25 62 -8z m158 -25 c20 -6 21 -8 7 -47 l-14 -42 -49 3 c-26 2 -65
-1 -85 -6 -42 -12 -43 -9 -13 35 30 44 102 71 154 57z m-253 -33 c30 -33 37
-78 19 -117 -17 -35 -33 -45 -33 -19 0 8 -14 30 -31 50 l-31 35 22 35 c25 40
31 42 54 16z m-375 -35 c77 -40 131 -153 110 -230 l-12 -41 -13 40 c-17 48
-47 81 -96 106 -45 23 -67 53 -75 103 -5 35 -5 36 26 36 18 0 45 -7 60 -14z
m-76 -114 c12 -13 39 -33 59 -43 33 -17 78 -65 67 -72 -2 -1 -37 -1 -77 1 -72
4 -73 4 -91 40 -28 56 -34 97 -20 139 l12 38 14 -40 c7 -21 23 -50 36 -63z
m682 59 c10 -17 -30 -106 -46 -102 -8 2 -47 6 -86 9 -40 2 -73 7 -73 9 0 20
38 67 63 78 36 16 133 20 142 6z m-285 -33 c28 -46 26 -82 -6 -107 -33 -26
-44 -26 -44 -2 0 11 -5 23 -11 27 -18 11 10 114 31 114 6 0 19 -15 30 -32z
m186 -89 c53 -14 55 -27 12 -75 l-33 -35 -83 27 -83 27 27 28 c37 39 84 47
160 28z m-256 -39 c0 -18 -27 -40 -49 -40 -6 0 -1 16 10 35 22 36 39 38 39 5z
m-222 -49 c10 -6 6 -10 -15 -15 -45 -11 -72 -33 -103 -85 -31 -49 -63 -71
-105 -71 -20 0 -25 5 -25 25 0 53 54 117 120 144 31 12 110 14 128 2z m355
-17 c26 -9 47 -20 47 -25 0 -13 -133 -11 -187 2 -44 12 -45 12 -22 25 33 18
106 17 162 -2z m-313 -49 c0 -79 -95 -157 -192 -158 -59 -1 -85 18 -39 28 41
9 76 38 103 86 25 45 59 68 101 69 22 0 27 -4 27 -25z m165 -18 c42 -24 85
-78 85 -108 0 -14 -7 -19 -26 -19 -38 0 -58 14 -98 70 -20 28 -46 52 -61 56
-39 10 -29 24 18 24 25 0 58 -9 82 -23z m-86 -46 c11 -11 27 -34 36 -50 16
-32 60 -61 92 -61 15 0 16 -2 3 -10 -45 -29 -157 8 -194 64 -13 20 -14 30 -4
51 13 30 41 32 67 6z"/>
<path d="M653 1090 c-80 -36 -51 -79 73 -110 268 -66 874 -48 1002 30 57 35
31 79 -57 96 -44 9 -39 -10 9 -29 22 -8 40 -20 40 -26 0 -14 2 -14 -83 9 -234
65 -637 67 -886 4 -107 -27 -111 -27 -111 -16 0 5 18 17 40 27 22 10 37 22 34
26 -7 12 -13 11 -61 -11z"/>
<path d="M2422 2084 c-43 -34 -43 -81 0 -97 19 -7 79 30 86 53 3 8 -9 2 -27
-13 -36 -30 -51 -33 -69 -15 -18 18 -15 26 20 58 40 37 33 47 -10 14z"/>
<path d="M470 2046 c0 -9 7 -16 16 -16 17 0 14 22 -4 28 -7 2 -12 -3 -12 -12z"/>
<path d="M1075 2020 c17 -78 17 -159 0 -211 -22 -66 -23 -149 -1 -208 18 -48
20 -112 6 -181 -11 -58 -5 -62 15 -14 32 77 37 126 21 198 -20 85 -20 119 0
197 14 53 14 72 4 114 -12 51 -55 152 -45 105z"/>
<path d="M2497 1964 c-22 -14 -37 -28 -34 -31 3 -2 18 4 33 14 31 20 30 22 7
-33 -5 -14 -1 -16 25 -12 39 6 40 0 5 -29 -16 -12 -23 -22 -18 -23 12 0 85 58
85 69 0 4 -16 5 -35 3 -40 -5 -41 -2 -20 38 20 38 5 39 -48 4z"/>
<path d="M290 1973 c0 -6 5 -15 10 -18 6 -4 9 -13 8 -22 -2 -8 16 -29 40 -46
l43 -32 19 25 c28 36 24 48 -5 20 -18 -17 -28 -21 -36 -13 -8 8 -8 13 0 17 6
4 11 11 11 17 0 5 -9 4 -20 -3 -15 -10 -22 -10 -32 0 -9 9 -7 16 7 32 10 11
15 23 11 27 -4 5 -12 0 -18 -10 -9 -18 -10 -18 -24 0 -7 10 -14 13 -14 6z"/>
<path d="M1206 1870 c3 -35 0 -73 -10 -105 -20 -64 -20 -101 0 -156 10 -30 14
-62 10 -99 l-5 -55 15 35 c13 27 15 50 9 105 -9 87 -9 103 0 190 6 55 4 78 -9
105 l-15 35 5 -55z"/>
<path d="M256 1852 c-10 -19 -16 -35 -14 -36 31 -22 98 -54 98 -47 0 5 -7 12
-16 15 -10 4 -13 13 -9 27 6 18 5 19 -14 7 -27 -17 -51 3 -32 26 7 9 11 21 9
28 -3 7 -12 -1 -22 -20z"/>
<path d="M2627 1768 c-51 -22 -55 -32 -31 -66 19 -27 25 -27 54 -2 13 11 27
20 32 20 10 0 11 57 0 64 -4 2 -29 -5 -55 -16z m51 -21 c2 -10 -3 -17 -12 -17
-18 0 -29 16 -21 31 9 14 29 6 33 -14z m-44 -14 c11 -27 -13 -42 -30 -19 -11
16 -11 22 -1 28 18 11 24 10 31 -9z"/>
<path d="M200 1727 c0 -8 18 -30 40 -47 37 -29 40 -30 40 -11 0 12 9 30 20 41
l20 20 -22 0 c-13 0 -40 3 -60 6 -30 5 -38 3 -38 -9z m73 -27 c-3 -11 -6 -20
-8 -20 -1 0 -10 9 -20 20 -18 20 -17 20 8 20 20 0 24 -4 20 -20z"/>
<path d="M2650 1640 c-22 -22 -23 -29 -14 -55 17 -44 99 -35 110 12 13 52 -56
83 -96 43z m74 -12 c16 -26 -4 -53 -40 -53 -23 0 -30 5 -32 24 -7 45 48 66 72
29z"/>
<path d="M154 1616 c-11 -28 1 -60 27 -75 24 -13 29 -13 53 2 18 12 26 25 25
45 -1 22 -2 23 -6 5 -6 -29 -27 -45 -54 -41 -32 4 -47 33 -31 58 7 12 8 20 2
20 -6 0 -13 -6 -16 -14z"/>
<path d="M2708 1513 c-21 -2 -38 -9 -38 -14 0 -6 15 -7 38 -4 l37 7 -30 -25
-30 -25 35 -10 35 -10 -33 -12 c-18 -7 -31 -14 -28 -17 4 -4 86 16 96 24 8 7
-25 23 -47 23 -30 0 -29 5 10 40 35 32 36 31 -45 23z"/>
<path d="M99 1390 c-4 -19 -5 -36 -4 -38 2 -2 28 -6 59 -9 l56 -6 -1 39 c-1
37 -2 37 -8 9 -8 -37 -40 -47 -42 -13 -1 17 -3 18 -6 6 -2 -10 -13 -18 -23
-18 -14 0 -20 9 -22 33 l-3 32 -6 -35z"/>
<path d="M113 1300 c-18 -7 -42 -64 -31 -75 1 -2 28 -5 58 -6 52 -3 55 -2 58
21 5 46 -40 78 -85 60z m65 -42 c3 -26 1 -28 -33 -28 -37 0 -52 17 -41 46 4
10 16 14 38 12 28 -2 34 -8 36 -30z"/>
<path d="M2700 1257 c0 -37 23 -60 60 -60 37 0 60 23 60 60 0 21 -4 23 -60 23
-56 0 -60 -2 -60 -23z m98 -14 c-3 -25 -7 -28 -38 -28 -31 0 -35 3 -38 28 -3
26 -1 27 38 27 39 0 41 -1 38 -27z"/>
<path d="M82 1138 c3 -33 3 -33 58 -33 55 0 55 0 58 33 2 18 -1 32 -7 32 -6 0
-11 -11 -11 -25 0 -32 -27 -34 -33 -2 l-4 22 -2 -22 c-2 -34 -41 -32 -41 2 0
14 -5 25 -11 25 -6 0 -9 -14 -7 -32z"/>
<path d="M2710 1140 c0 -5 25 -10 55 -10 30 0 55 5 55 10 0 6 -25 10 -55 10
-30 0 -55 -4 -55 -10z"/>
<path d="M2700 1080 c0 -6 5 -10 10 -10 16 0 12 -50 -5 -56 -29 -11 -15 -22
18 -14 17 4 44 11 60 14 15 4 27 10 27 14 0 4 -25 20 -55 35 -30 15 -55 22
-55 17z m64 -36 c20 -8 11 -24 -15 -24 -10 0 -19 7 -19 15 0 16 9 19 34 9z"/>
<path d="M99 1036 c-18 -39 -5 -60 32 -52 18 3 42 6 55 6 13 0 24 5 24 10 0 6
-6 10 -13 10 -7 0 -17 10 -22 23 -15 33 -62 36 -76 3z m59 2 c21 -21 13 -38
-18 -38 -22 0 -30 5 -30 18 0 32 25 43 48 20z"/>
</g>
</svg>
